<svg width="116" height="200" viewBox="0 0 116 200" fill="none" xmlns="http://www.w3.org/2000/svg">
<path d="M30 137.439C30 136.644 30.6443 136 31.439 136H55.561C56.3557 136 57 136.644 57 137.439V181.5C57 188.956 50.9558 195 43.5 195C36.0442 195 30 188.956 30 181.5V137.439Z" fill="#BB0B00"/>
<path d="M61 137.439C61 136.644 61.6443 136 62.439 136H86.561C87.3557 136 88 136.644 88 137.439V181.5C88 188.956 81.9558 195 74.5 195C67.0442 195 61 188.956 61 181.5V137.439Z" fill="#BB0B00"/>
<ellipse cx="77.4745" cy="192.937" rx="14.5255" ry="6.93676" fill="black"/>
<ellipse cx="41.5255" cy="192.937" rx="14.5255" ry="6.93676" fill="black"/>
<path d="M22.3245 134.626L30.0124 89.3528C30.3989 87.0764 32.6416 85.6109 34.8817 86.1709L57.5313 91.8333C58.1519 91.9885 58.8009 91.9911 59.4227 91.841L83.0869 86.129C85.319 85.5902 87.5405 87.0548 87.9249 89.3186L95.6239 134.657C95.9241 136.425 95.0038 138.185 93.3459 138.867C66.7794 149.81 38.2841 144.057 24.6415 138.824C22.9536 138.177 22.0218 136.409 22.3245 134.626Z" fill="#D90D00"/>
<path fill-rule="evenodd" clip-rule="evenodd" d="M104.323 145.659C110.772 144.417 114.993 138.183 113.751 131.734L108.217 103L84.7676 107L90.3972 136.231C91.6392 142.68 97.874 146.901 104.323 145.659Z" fill="#FFCB7C"/>
<path d="M104.577 84.0967C104.055 81.3851 101.433 79.6103 98.7216 80.1325L85.1871 82.7391C82.4755 83.2613 80.7007 85.8828 81.2229 88.5944L84.7676 107L108.217 103L104.577 84.0967Z" fill="#D90D00"/>
<path fill-rule="evenodd" clip-rule="evenodd" d="M11.677 144.472C5.22794 143.23 1.0068 136.996 2.2488 130.547L7.78253 101.813L31.2324 105.813L25.6028 135.044C24.3608 141.493 18.126 145.714 11.677 144.472Z" fill="#FFCB7C"/>
<path d="M11.4231 82.9098C11.9453 80.1982 14.5668 78.4233 17.2784 78.9455L30.8129 81.5521C33.5245 82.0743 35.2993 84.6959 34.7771 87.4075L31.2324 105.813L7.78253 101.813L11.4231 82.9098Z" fill="#D90D00"/>
<path fill-rule="evenodd" clip-rule="evenodd" d="M32.4888 28.226L30.724 16.1019L47.8991 15.2195L47.3887 27.1031L32.4888 28.226ZM68.1395 29.7572L67.8808 16.1019L80.8716 15.2195L81.5096 31.0801L68.1395 29.7572Z" fill="#333333"/>
<path fill-rule="evenodd" clip-rule="evenodd" d="M25.5324 11.7706L53.8801 9.22175L53.9402 17.9422L64.2422 18.1673L63.6549 9.3518L84.614 10.2737L85.3468 33.9496L64.6477 34.0266L62.8158 26.0753L52.7991 24.2685L53.1963 34.1384L27.8475 32.8323L26.7809 24.1135L26.69 23.3696L25.8218 16.2726L25.5324 13.9069L25.5324 11.7706ZM32.4888 28.226L30.724 16.1019L47.8991 15.2195L47.3887 27.1031L32.4888 28.226ZM68.1395 29.7572L67.8808 16.1019L80.8716 15.2195L81.5096 31.0801L68.1395 29.7572Z" fill="black"/>
<path fill-rule="evenodd" clip-rule="evenodd" d="M32.4888 28.226L30.724 16.1019L47.8991 15.2195L47.3887 27.1031L32.4888 28.226ZM68.1395 29.7572L67.8808 16.1019L80.8716 15.2195L81.5096 31.0801L68.1395 29.7572Z" stroke="black" stroke-width="1.07141"/>
<path fill-rule="evenodd" clip-rule="evenodd" d="M25.5324 11.7706L53.8801 9.22175L53.9402 17.9422L64.2422 18.1673L63.6549 9.3518L84.614 10.2737L85.3468 33.9496L64.6477 34.0266L62.8158 26.0753L52.7991 24.2685L53.1963 34.1384L27.8475 32.8323L26.7809 24.1135L26.69 23.3696L25.8218 16.2726L25.5324 13.9069L25.5324 11.7706ZM32.4888 28.226L30.724 16.1019L47.8991 15.2195L47.3887 27.1031L32.4888 28.226ZM68.1395 29.7572L67.8808 16.1019L80.8716 15.2195L81.5096 31.0801L68.1395 29.7572Z" stroke="black" stroke-width="1.07141"/>
<circle cx="56.9205" cy="49.1942" r="38.9205" fill="#FFCB7C"/>
</svg>
