<svg width="78" height="191" viewBox="0 0 78 191" fill="none" xmlns="http://www.w3.org/2000/svg">
<path d="M27.3223 126.176C27.1443 125.401 27.6279 124.629 28.4025 124.451L51.9116 119.049C52.6862 118.871 53.4584 119.354 53.6364 120.129L63.5046 163.07C65.1744 170.337 60.6375 177.581 53.3711 179.251C46.1046 180.921 38.8603 176.384 37.1905 169.118L27.3223 126.176Z" fill="#A00A00"/>
<ellipse cx="60.7306" cy="175.443" rx="14.5255" ry="6.93676" transform="rotate(-12.9421 60.7306 175.443)" fill="black"/>
<path d="M18 74.1654C18 73.3706 18.6443 72.7263 19.439 72.7263H56.561C57.3557 72.7263 58 73.3706 58 74.1654V111.726C58 122.772 49.0457 131.726 38 131.726C26.9543 131.726 18 122.772 18 111.726V74.1654Z" fill="#D90D00"/>
<path d="M24.8903 126.35C24.9399 125.557 25.6231 124.954 26.4163 125.003L50.4913 126.509C51.2845 126.558 51.8873 127.241 51.8377 128.035L49.0881 172.01C48.6228 179.451 42.2132 185.106 34.7719 184.641C27.3306 184.176 21.6754 177.766 22.1407 170.325L24.8903 126.35Z" fill="#BB0B00"/>
<ellipse cx="32.9301" cy="182.459" rx="14.5255" ry="6.93676" transform="rotate(3.57786 32.9301 182.459)" fill="black"/>
<circle cx="38.9205" cy="38.9205" r="38.9205" fill="#FFCB7C"/>
<path fill-rule="evenodd" clip-rule="evenodd" d="M49.6213 139.189C43.1841 140.491 36.9103 136.329 35.6083 129.891L29.8075 101.21L53.0182 95.9989L58.9195 125.176C60.2215 131.614 56.0585 137.888 49.6213 139.189Z" fill="#FFCB7C"/>
<path d="M25.9912 82.3419C25.4438 79.6353 27.1941 76.9974 29.9007 76.4499L43.4104 73.7175C46.117 73.1701 48.7549 74.9205 49.3024 77.6271L53.0182 95.9989L29.8075 101.21L25.9912 82.3419Z" fill="#D90D00"/>
</svg>
