<svg width="86" height="195" viewBox="0 0 86 195" fill="none" xmlns="http://www.w3.org/2000/svg">
<path d="M30.9194 117.449C31.1526 116.689 31.9575 116.262 32.7173 116.495L55.7781 123.571C56.5379 123.804 56.9648 124.609 56.7317 125.369L43.8069 167.492C41.6198 174.62 34.0686 178.625 26.9407 176.438C19.8129 174.251 15.8076 166.699 17.9947 159.572L30.9194 117.449Z" fill="#A00A00"/>
<ellipse cx="31.2184" cy="176.819" rx="14.5255" ry="6.93676" transform="rotate(17.0579 31.2184 176.819)" fill="black"/>
<path d="M25.3706 74.1654C25.3706 73.3706 26.0149 72.7263 26.8096 72.7263H63.9316C64.7263 72.7263 65.3706 73.3706 65.3706 74.1654V111.726C65.3706 122.772 56.4163 131.726 45.3706 131.726C34.3249 131.726 25.3706 122.772 25.3706 111.726V74.1654Z" fill="#D90D00"/>
<path d="M34.6409 132.104C34.4352 131.337 34.8908 130.548 35.6584 130.342L58.9584 124.099C59.7261 123.893 60.5152 124.349 60.7209 125.116L72.1247 167.676C74.0544 174.878 69.7805 182.28 62.5788 184.21C55.377 186.14 47.9744 181.866 46.0447 174.664L34.6409 132.104Z" fill="#BB0B00"/>
<ellipse cx="67.1375" cy="182.728" rx="14.5255" ry="6.93676" transform="rotate(-15 67.1375 182.728)" fill="black"/>
<circle cx="46.2912" cy="38.9205" r="38.9205" fill="#FFCB7C"/>
<path fill-rule="evenodd" clip-rule="evenodd" d="M56.9919 139.189C50.5547 140.491 44.2809 136.329 42.9789 129.891L37.1781 101.21L60.3888 95.9989L66.2901 125.176C67.5921 131.614 63.4291 137.888 56.9919 139.189Z" fill="#FFCB7C"/>
<path d="M33.3618 82.3419C32.8144 79.6353 34.5647 76.9974 37.2714 76.4499L50.781 73.7175C53.4876 73.1701 56.1255 74.9205 56.673 77.6271L60.3888 95.9989L37.1781 101.21L33.3618 82.3419Z" fill="#D90D00"/>
</svg>
